<svg width="122" height="25" viewBox="0 0 122 25" fill="none" xmlns="http://www.w3.org/2000/svg">
<path d="M8.58926 5.84824C9.5282 5.23862 10.6293 4.92653 11.7484 4.9528C12.3823 4.94709 13.0129 5.04338 13.6162 5.23798C14.1692 5.41629 14.685 5.69422 15.1381 6.05806C15.5783 6.41663 15.9459 6.85597 16.2212 7.35247C16.493 7.85192 16.6755 8.39497 16.7606 8.95717C16.7662 8.99214 16.7843 9.0239 16.8114 9.04669C16.8385 9.06947 16.8729 9.08175 16.9083 9.08129H21.6116C21.6327 9.08147 21.6537 9.07712 21.673 9.06852C21.6923 9.05992 21.7095 9.04729 21.7235 9.03146C21.7375 9.01564 21.748 8.99699 21.7542 8.97678C21.7603 8.95658 21.7621 8.93527 21.7594 8.91432C21.6158 7.71264 21.2538 6.54733 20.691 5.47588C20.1441 4.45156 19.3975 3.54719 18.4953 2.81614C17.5765 2.07898 16.5302 1.51655 15.4085 1.15676C14.1903 0.767754 12.9179 0.575221 11.6391 0.586398C9.58813 0.586398 7.74061 1.05579 6.0965 1.99458C4.45239 2.93337 3.15158 4.29673 2.19408 6.08466C1.23854 7.87161 0.759789 10.0388 0.757819 12.5862C0.755848 15.1337 1.22918 17.2969 2.17782 19.076C3.12449 20.8619 4.41741 22.2268 6.0566 23.1705C7.69578 24.1142 9.55513 24.5856 11.6347 24.5846C13.0089 24.6058 14.3754 24.376 15.6671 23.9064C16.8002 23.4883 17.8448 22.8613 18.7465 22.0578C19.5906 21.3031 20.2914 20.402 20.8152 19.3981C21.2931 18.4813 21.6118 17.49 21.7579 16.4665C21.7606 16.4455 21.7589 16.4242 21.7527 16.404C21.7465 16.3838 21.736 16.3652 21.722 16.3493C21.708 16.3335 21.6908 16.3209 21.6715 16.3123C21.6522 16.3037 21.6313 16.2993 21.6101 16.2995L16.8995 16.2788C16.8649 16.2781 16.8312 16.2896 16.8042 16.3112C16.7772 16.3328 16.7586 16.3632 16.7517 16.397C16.645 16.9424 16.4451 17.4653 16.1606 17.9426C15.8768 18.4219 15.5036 18.8423 15.0613 19.1809C14.6078 19.5254 14.0963 19.7861 13.5511 19.9507C12.9535 20.1296 12.3324 20.2178 11.7085 20.2123C10.6079 20.2345 9.52495 19.9334 8.59369 19.3464C7.69529 18.7681 6.99785 17.9126 6.50137 16.7797C6.00488 15.6469 5.75566 14.2481 5.75369 12.5833C5.75369 10.9638 5.99996 9.58467 6.4925 8.44591C6.98505 7.30715 7.68396 6.44126 8.58926 5.84824Z" fill="#13141F"/>
<path d="M40.528 20.1898H29.8299V14.6118H39.6739C39.7131 14.6118 39.7507 14.5962 39.7784 14.5685C39.8061 14.5408 39.8217 14.5032 39.8217 14.464V10.6946C39.8217 10.6554 39.8061 10.6178 39.7784 10.5901C39.7507 10.5624 39.7131 10.5468 39.6739 10.5468H29.8299V4.97469H40.4807C40.5199 4.97469 40.5575 4.95912 40.5852 4.93141C40.6129 4.9037 40.6284 4.86612 40.6284 4.82693V1.05011C40.6284 1.01092 40.6129 0.973333 40.5852 0.945622C40.5575 0.917911 40.5199 0.902344 40.4807 0.902344H25.0306C24.9914 0.902344 24.9538 0.917911 24.9261 0.945622C24.8984 0.973333 24.8828 1.01092 24.8828 1.05011V24.1144C24.8828 24.1536 24.8984 24.1912 24.9261 24.2189C24.9538 24.2466 24.9914 24.2622 25.0306 24.2622H40.528C40.5672 24.2622 40.6047 24.2466 40.6324 24.2189C40.6602 24.1912 40.6757 24.1536 40.6757 24.1144V20.3376C40.6757 20.2984 40.6602 20.2608 40.6324 20.2331C40.6047 20.2054 40.5672 20.1898 40.528 20.1898Z" fill="#13141F"/>
<path d="M59.5839 20.3376C59.5839 20.2984 59.5683 20.2608 59.5406 20.2331C59.5129 20.2054 59.4753 20.1898 59.4361 20.1898H48.7381V14.6118H58.582C58.6212 14.6118 58.6588 14.5962 58.6865 14.5685C58.7142 14.5408 58.7298 14.5032 58.7298 14.464V10.6946C58.7298 10.6554 58.7142 10.6178 58.6865 10.5901C58.6588 10.5624 58.6212 10.5468 58.582 10.5468H48.7381V4.97469H59.3903C59.4295 4.97469 59.4671 4.95912 59.4948 4.93141C59.5225 4.9037 59.5381 4.86612 59.5381 4.82693V1.05011C59.5381 1.01092 59.5225 0.973333 59.4948 0.945622C59.4671 0.917911 59.4295 0.902344 59.3903 0.902344H43.9446C43.9054 0.902344 43.8679 0.917911 43.8402 0.945622C43.8124 0.973333 43.7969 1.01092 43.7969 1.05011V24.1144C43.7969 24.1536 43.8124 24.1912 43.8402 24.2189C43.8679 24.2466 43.9054 24.2622 43.9446 24.2622H59.4361C59.4753 24.2622 59.5129 24.2466 59.5406 24.2189C59.5683 24.1912 59.5839 24.1536 59.5839 24.1144V20.3376Z" fill="#13141F"/>
<path d="M80.5508 3.87428C80.5698 3.84812 80.5796 3.81645 80.5789 3.78415V1.05792C80.5789 1.01873 80.5633 0.981146 80.5356 0.953435C80.5079 0.925724 80.4703 0.910156 80.4311 0.910156H77.2808L74.2162 5.19528C74.2118 5.20733 74.2058 5.21876 74.1985 5.22927L62.8104 21.2025C62.7512 21.2864 62.7192 21.3864 62.7188 21.4891V24.1075C62.7188 24.1467 62.7343 24.1842 62.762 24.212C62.7897 24.2397 62.8273 24.2552 62.8665 24.2552H65.9695L80.007 4.63822L80.5508 3.87428Z" fill="#13141F"/>
<path d="M71.0296 20.1914L68.1172 24.2638H72.6343L75.5452 20.1914H71.0296Z" fill="#13141F"/>
<path d="M80.4482 24.2638C80.4874 24.2638 80.5249 24.2482 80.5526 24.2205C80.5804 24.1928 80.5959 24.1552 80.5959 24.116V20.3466C80.5969 20.3265 80.5938 20.3065 80.5869 20.2877C80.5799 20.269 80.5692 20.2518 80.5553 20.2373C80.5415 20.2228 80.5249 20.2112 80.5065 20.2033C80.488 20.1954 80.4682 20.1914 80.4482 20.1914H78.4031L75.4922 24.2638H80.4482Z" fill="#13141F"/>
<path d="M62.8507 0.90192C62.8306 0.900918 62.8106 0.903998 62.7918 0.910974C62.773 0.917949 62.7559 0.928674 62.7414 0.942496C62.7268 0.956318 62.7153 0.972949 62.7074 0.991376C62.6995 1.0098 62.6955 1.02964 62.6955 1.04968V4.81173C62.6944 4.83238 62.6977 4.85303 62.7051 4.87233C62.7126 4.89164 62.724 4.90917 62.7386 4.9238C62.7532 4.93842 62.7707 4.94981 62.7901 4.95723C62.8094 4.96465 62.83 4.96794 62.8507 4.96688H72.2218L75.1357 0.894531L62.8507 0.90192Z" fill="#13141F"/>
<path d="M116.256 15.1634C116.325 15.1338 116.415 15.1235 116.485 15.091C117.702 14.5288 118.722 13.6147 119.415 12.4667C120.081 11.3525 120.414 10.0227 120.415 8.47708C120.427 7.69852 120.349 6.92118 120.185 6.16016L112.219 17.3517L114.477 21.5777L117.461 17.3813L116.256 15.1634Z" fill="#13141F"/>
<path d="M113.587 5.35859C114.174 5.60016 114.667 6.02655 114.991 6.5732C115.214 6.97231 115.357 7.41171 115.41 7.86613L118.661 3.29877C118.096 2.70032 117.429 2.20789 116.69 1.84478C116.325 1.66325 115.947 1.51011 115.558 1.38672L112.898 5.12365C113.134 5.18167 113.365 5.26028 113.587 5.35859Z" fill="#13141F"/>
<path d="M107.723 24.2612C107.767 24.2612 107.809 24.2438 107.841 24.2128C107.872 24.1817 107.889 24.1396 107.889 24.0957V20.2539L105.031 24.2686L107.723 24.2612Z" fill="#13141F"/>
<path d="M119.015 20.2227L116.141 24.264H120.944C120.973 24.2648 121.002 24.2579 121.027 24.244C121.053 24.2302 121.074 24.2098 121.089 24.185C121.104 24.1603 121.112 24.132 121.113 24.103C121.113 24.074 121.106 24.0455 121.092 24.0202L119.015 20.2227Z" fill="#13141F"/>
<path d="M103.119 0.902344C103.075 0.902344 103.033 0.919779 103.002 0.950815C102.971 0.981851 102.953 1.02395 102.953 1.06784V5.7534L106.412 0.902344H103.119Z" fill="#13141F"/>
<path d="M107.891 4.94071H109.812L112.683 0.914164C112.513 0.914164 112.343 0.902344 112.168 0.902344H109.27L102.953 9.76812V14.5837L107.891 7.65068V4.94071Z" fill="#13141F"/>
<path d="M107.89 15.9868H109.632L112.525 11.9219C112.101 11.9884 111.673 12.0205 111.244 12.0179H107.993L102.953 19.0943V22.9273L107.891 15.9913L107.89 15.9868Z" fill="#13141F"/>
<path d="M99.5477 24.2638C99.5869 24.2638 99.6245 24.2482 99.6522 24.2205C99.6799 24.1928 99.6954 24.1552 99.6954 24.116V20.3392C99.6954 20.3 99.6799 20.2624 99.6522 20.2347C99.6245 20.207 99.5869 20.1914 99.5477 20.1914H96.9973L94.0938 24.2638H99.5477Z" fill="#13141F"/>
<path d="M99.4963 4.97469C99.5355 4.97469 99.5731 4.95912 99.6008 4.93141C99.6285 4.9037 99.6441 4.86612 99.6441 4.82693V1.05011C99.6441 1.01092 99.6285 0.973333 99.6008 0.945622C99.5731 0.917911 99.5355 0.902344 99.4963 0.902344H96.7346L93.8281 4.97469H99.4963Z" fill="#13141F"/>
<path d="M88.846 14.6118H90.9545L93.8596 10.5469H89.8552L83.9062 18.8807V24.1204C83.9066 24.1469 83.914 24.1728 83.9278 24.1954C83.9416 24.218 83.9612 24.2365 83.9846 24.2489L88.846 17.4356V14.6118Z" fill="#13141F"/>
<path d="M88.846 4.97469H90.9708L93.8773 0.902344H90.2497L83.9062 9.77847V14.8704L88.846 7.95064V4.97469Z" fill="#13141F"/>
<path d="M89.7331 20.1914L86.8281 24.2638H91.2315L94.135 20.1914H89.7331Z" fill="#13141F"/>
<path d="M98.6902 14.6118C98.7293 14.6118 98.7669 14.5963 98.7946 14.5686C98.8224 14.5408 98.8379 14.5033 98.8379 14.4641V10.6946C98.8379 10.6554 98.8224 10.6179 98.7946 10.5902C98.7669 10.5624 98.7293 10.5469 98.6902 10.5469H96.7175L93.8125 14.6177L98.6902 14.6118Z" fill="#13141F"/>
<path d="M84.054 0.902344C84.0148 0.902344 83.9772 0.917911 83.9495 0.945622C83.9218 0.973333 83.9062 1.01092 83.9062 1.05011V5.77852L87.3905 0.902344H84.054Z" fill="#13141F"/>
</svg>
